<mxfile host="Electron" agent="Mozilla/5.0 (Windows NT 10.0; Win64; x64) AppleWebKit/537.36 (KHTML, like Gecko) draw.io/24.7.17 Chrome/128.0.6613.36 Electron/32.0.1 Safari/537.36" version="24.7.17">
  <diagram name="Trang-1" id="bMiknARZJnXVaoL8tnX3">
    <mxGraphModel dx="1114" dy="656" grid="1" gridSize="10" guides="1" tooltips="1" connect="1" arrows="1" fold="1" page="1" pageScale="1" pageWidth="827" pageHeight="1169" math="0" shadow="0">
      <root>
        <mxCell id="0" />
        <mxCell id="1" parent="0" />
        <mxCell id="c5IgZS8KUTy0unRA6LIm-13" style="edgeStyle=orthogonalEdgeStyle;rounded=0;orthogonalLoop=1;jettySize=auto;html=1;exitX=0.5;exitY=1;exitDx=0;exitDy=0;entryX=0.5;entryY=0;entryDx=0;entryDy=0;" parent="1" source="gOC3_Gfe7DvDGcyzSAZS-1" target="c5IgZS8KUTy0unRA6LIm-6" edge="1">
          <mxGeometry relative="1" as="geometry" />
        </mxCell>
        <object label="Start" start="" id="gOC3_Gfe7DvDGcyzSAZS-1">
          <mxCell style="ellipse;whiteSpace=wrap;html=1;fontSize=24;" parent="1" vertex="1">
            <mxGeometry x="410" y="20" width="120" height="60" as="geometry" />
          </mxCell>
        </object>
        <object label="end" start="" id="c5IgZS8KUTy0unRA6LIm-1">
          <mxCell style="ellipse;whiteSpace=wrap;html=1;fontSize=24;" parent="1" vertex="1">
            <mxGeometry x="440" y="730" width="120" height="60" as="geometry" />
          </mxCell>
        </object>
        <mxCell id="c5IgZS8KUTy0unRA6LIm-17" style="edgeStyle=orthogonalEdgeStyle;rounded=0;orthogonalLoop=1;jettySize=auto;html=1;exitX=0.5;exitY=1;exitDx=0;exitDy=0;entryX=0.5;entryY=0;entryDx=0;entryDy=0;" parent="1" source="c5IgZS8KUTy0unRA6LIm-4" target="c5IgZS8KUTy0unRA6LIm-8" edge="1">
          <mxGeometry relative="1" as="geometry">
            <Array as="points">
              <mxPoint x="365" y="470" />
            </Array>
          </mxGeometry>
        </mxCell>
        <mxCell id="c5IgZS8KUTy0unRA6LIm-4" value="number chi hết&amp;nbsp;&lt;div&gt;cho 2&lt;/div&gt;&lt;div&gt;(dư không)&lt;/div&gt;" style="rhombus;whiteSpace=wrap;html=1;" parent="1" vertex="1">
          <mxGeometry x="280" y="300" width="170" height="80" as="geometry" />
        </mxCell>
        <mxCell id="c5IgZS8KUTy0unRA6LIm-18" style="edgeStyle=orthogonalEdgeStyle;rounded=0;orthogonalLoop=1;jettySize=auto;html=1;exitX=0.5;exitY=1;exitDx=0;exitDy=0;" parent="1" source="c5IgZS8KUTy0unRA6LIm-5" target="c5IgZS8KUTy0unRA6LIm-9" edge="1">
          <mxGeometry relative="1" as="geometry">
            <Array as="points">
              <mxPoint x="585" y="450" />
              <mxPoint x="585" y="450" />
            </Array>
          </mxGeometry>
        </mxCell>
        <mxCell id="c5IgZS8KUTy0unRA6LIm-5" value="number không chia hết&lt;div&gt;cho 2&lt;/div&gt;&lt;div&gt;(dư &amp;gt;0)&lt;/div&gt;" style="rhombus;whiteSpace=wrap;html=1;" parent="1" vertex="1">
          <mxGeometry x="480" y="300" width="210" height="80" as="geometry" />
        </mxCell>
        <mxCell id="c5IgZS8KUTy0unRA6LIm-14" style="edgeStyle=orthogonalEdgeStyle;rounded=0;orthogonalLoop=1;jettySize=auto;html=1;exitX=0.1;exitY=0.617;exitDx=0;exitDy=0;entryX=0.5;entryY=0;entryDx=0;entryDy=0;exitPerimeter=0;" parent="1" source="c5IgZS8KUTy0unRA6LIm-6" target="c5IgZS8KUTy0unRA6LIm-4" edge="1">
          <mxGeometry relative="1" as="geometry">
            <Array as="points">
              <mxPoint x="470" y="187" />
              <mxPoint x="470" y="180" />
              <mxPoint x="365" y="180" />
            </Array>
          </mxGeometry>
        </mxCell>
        <mxCell id="c5IgZS8KUTy0unRA6LIm-15" style="edgeStyle=orthogonalEdgeStyle;rounded=0;orthogonalLoop=1;jettySize=auto;html=1;exitX=1;exitY=0.5;exitDx=0;exitDy=0;entryX=0.5;entryY=0;entryDx=0;entryDy=0;" parent="1" edge="1">
          <mxGeometry relative="1" as="geometry">
            <mxPoint x="520" y="180" as="sourcePoint" />
            <mxPoint x="585" y="300" as="targetPoint" />
          </mxGeometry>
        </mxCell>
        <mxCell id="c5IgZS8KUTy0unRA6LIm-6" value="nhập number" style="shape=parallelogram;perimeter=parallelogramPerimeter;whiteSpace=wrap;html=1;fixedSize=1;" parent="1" vertex="1">
          <mxGeometry x="410" y="150" width="120" height="60" as="geometry" />
        </mxCell>
        <mxCell id="c5IgZS8KUTy0unRA6LIm-8" value="là số chẵn" style="rounded=0;whiteSpace=wrap;html=1;" parent="1" vertex="1">
          <mxGeometry x="325" y="470" width="120" height="60" as="geometry" />
        </mxCell>
        <mxCell id="c5IgZS8KUTy0unRA6LIm-9" value="là số lẻ" style="rounded=0;whiteSpace=wrap;html=1;" parent="1" vertex="1">
          <mxGeometry x="525" y="470" width="120" height="60" as="geometry" />
        </mxCell>
        <mxCell id="c5IgZS8KUTy0unRA6LIm-11" value="hợp lệ" style="shape=parallelogram;perimeter=parallelogramPerimeter;whiteSpace=wrap;html=1;fixedSize=1;" parent="1" vertex="1">
          <mxGeometry x="440" y="590" width="120" height="60" as="geometry" />
        </mxCell>
        <mxCell id="c5IgZS8KUTy0unRA6LIm-12" value="" style="endArrow=classic;html=1;rounded=0;exitX=0.575;exitY=1.033;exitDx=0;exitDy=0;exitPerimeter=0;entryX=1;entryY=0.5;entryDx=0;entryDy=0;" parent="1" source="c5IgZS8KUTy0unRA6LIm-9" target="c5IgZS8KUTy0unRA6LIm-11" edge="1">
          <mxGeometry width="50" height="50" relative="1" as="geometry">
            <mxPoint x="-10" y="710" as="sourcePoint" />
            <mxPoint x="70" y="710" as="targetPoint" />
            <Array as="points">
              <mxPoint x="594" y="620" />
            </Array>
          </mxGeometry>
        </mxCell>
        <mxCell id="c5IgZS8KUTy0unRA6LIm-27" value="True" style="edgeLabel;html=1;align=center;verticalAlign=middle;resizable=0;points=[];" parent="c5IgZS8KUTy0unRA6LIm-12" vertex="1" connectable="0">
          <mxGeometry x="-0.6055" relative="1" as="geometry">
            <mxPoint as="offset" />
          </mxGeometry>
        </mxCell>
        <mxCell id="c5IgZS8KUTy0unRA6LIm-19" style="edgeStyle=orthogonalEdgeStyle;rounded=0;orthogonalLoop=1;jettySize=auto;html=1;exitX=0.5;exitY=1;exitDx=0;exitDy=0;entryX=0;entryY=0.25;entryDx=0;entryDy=0;" parent="1" source="c5IgZS8KUTy0unRA6LIm-8" target="c5IgZS8KUTy0unRA6LIm-11" edge="1">
          <mxGeometry relative="1" as="geometry">
            <Array as="points">
              <mxPoint x="385" y="608" />
            </Array>
            <mxPoint x="430" y="610" as="targetPoint" />
          </mxGeometry>
        </mxCell>
        <mxCell id="c5IgZS8KUTy0unRA6LIm-24" value="True" style="edgeLabel;html=1;align=center;verticalAlign=middle;resizable=0;points=[];" parent="c5IgZS8KUTy0unRA6LIm-19" vertex="1" connectable="0">
          <mxGeometry x="-0.0718" relative="1" as="geometry">
            <mxPoint as="offset" />
          </mxGeometry>
        </mxCell>
        <mxCell id="RoReMOkBkYpSv9IFZ_Ye-3" style="edgeStyle=orthogonalEdgeStyle;rounded=0;orthogonalLoop=1;jettySize=auto;html=1;exitX=0.5;exitY=1;exitDx=0;exitDy=0;" edge="1" parent="1" source="c5IgZS8KUTy0unRA6LIm-11">
          <mxGeometry relative="1" as="geometry">
            <mxPoint x="500" y="720" as="targetPoint" />
          </mxGeometry>
        </mxCell>
      </root>
    </mxGraphModel>
  </diagram>
</mxfile>
